# xmcd CD database file
#
# Track frame offsets:
#	182
#	20415
#	38640
#	55400
#	64727
#	88465
#	103895
#	128170
#	148935
#	163942
#	186530
#	198020
#	216357
#	236347
#	253762
#
# Disc length: 3762 seconds
#
# Revision: 2
# Processed by: cddbd v1.5.1PL0 Copyright (c) Steve Scherf et al.
# Submitted via: CDex 1.51
#
DISCID=e70eb00f
DTITLE=Malcom Mclaren - Paris
DYEAR=1994
DGENRE=Jazz
TTITLE0=Mon Die Senie
TTITLE1=Walking With Satie
TTITLE2=Pere Lachaise
TTITLE3=Miles and Miles of Miles Davis
TTITLE4=Jazz Is Paris
TTITLE5=Rue Dauphine
TTITLE6=Paris Paris
TTITLE7=Je T'Aime...Moi Non Plus
TTITLE8=Club Le Narcisse
TTITLE9=La Main Parisienne
TTITLE10=Driving Into Delirium
TTITLE11=Revenge Of the Flowers
TTITLE12=In The Absence Of the Parisienne
TTITLE13=Anthem
TTITLE14=Who The Hell Is Sonia Rykiel?
EXTD=YEAR: 1994
EXTT0=
EXTT1=
EXTT2=
EXTT3=
EXTT4=
EXTT5=
EXTT6=
EXTT7=
EXTT8=
EXTT9=
EXTT10=
EXTT11=
EXTT12=
EXTT13=
EXTT14=
PLAYORDER=
